:FULLY-SPECIFIED
:FORCE-ALL-JOINTS-BE-3DOF
:DEGREES
421
root 10.0143 16.8551 22.9584 6.02197 -0.86168 -5.3117
lfemur -41.7309 1.61608 -16.6254
ltibia 29.1058 0 0
lfoot -14.5596 7.40112 0
ltoes -4.72006 0 0
rfemur 10.8733 3.10693 28.7829
rtibia 19.4427 0 0
rfoot -7.43368 3.82791 0
rtoes -14.8932 0 0
lowerback -8.29216 2.23355 1.76185
upperback 0.304615 2.62699 3.15588
thorax 4.93121 1.29686 2.64366
lowerneck -20.0904 -5.62735 -12.6677
upperneck 22.0758 -7.11706 12.2874
head 11.4617 -2.8445 5.54746
lclavicle 4.2676e-14 3.87515e-14 0
lhumerus -43.0524 -10.8619 92.8033
lradius 24.6053 0 0
lwrist 3.94849 0 0
lhand -10.7496 -24.5911 0
lfingers 7.12502 0 0
lthumb 15.2611 4.81794 0
rclavicle 4.2676e-14 3.87515e-14 0
rhumerus -31.5739 14.5689 -87.4622
rradius 39.7018 0 0
rwrist -17.6089 0 0
rhand -30.1485 -24.7417 0
rfingers 7.12502 0 0
rthumb -3.46092 -54.693 0
422
root 10.039 16.8694 23.0972 5.95141 -0.781084 -5.07775
lfemur -41.3703 1.69604 -17.0447
ltibia 29.3365 0 0
lfoot -14.6652 7.28335 0
ltoes -4.2104 0 0
rfemur 9.92577 2.91264 28.4055
rtibia 20.9891 0 0
rfoot -7.59631 3.51747 0
rtoes -14.8813 0 0
lowerback -8.24486 2.11592 1.61586
upperback 0.330325 2.48696 3.09341
thorax 4.93575 1.22439 2.6432
lowerneck -20.1638 -5.57008 -12.6125
upperneck 22.1362 -7.0352 12.2325
head 11.4829 -2.80745 5.53289
lclavicle 4.13846e-14 3.75126e-14 0
lhumerus -42.1491 -11.0403 92.5581
lradius 24.4776 0 0
lwrist 3.75879 0 0
lhand -10.8515 -24.5412 0
lfingers 7.12502 0 0
lthumb 15.163 4.87514 0
rclavicle 4.13846e-14 3.75126e-14 0
rhumerus -31.8389 14.5297 -87.5319
rradius 39.7341 0 0
rwrist -17.6149 0 0
rhand -30.1902 -24.9296 0
rfingers 7.12502 0 0
rthumb -3.5012 -54.8803 0
423
root 10.0641 16.8843 23.2362 5.88205 -0.698538 -4.84233
lfemur -40.9728 1.77439 -17.4618
ltibia 29.5446 0 0
lfoot -14.7664 7.16588 0
ltoes -3.71881 0 0
rfemur 8.96003 2.72162 28.0279
rtibia 22.5202 0 0
rfoot -7.76713 3.20138 0
rtoes -14.877 0 0
lowerback -8.19723 1.99577 1.46865
upperback 0.355199 2.34364 3.03137
thorax 4.93961 1.15027 2.6435
lowerneck -20.2388 -5.51195 -12.5565
upperneck 22.1964 -6.95222 12.1776
head 11.5042 -2.76979 5.51834
lclavicle 4.00999e-14 3.62787e-14 0
lhumerus -41.2494 -11.2218 92.3175
lradius 24.356 0 0
lwrist 3.57238 0 0
lhand -10.9509 -24.4925 0
lfingers 7.12502 0 0
lthumb 15.0673 4.93099 0
rclavicle 4.00999e-14 3.62787e-14 0
rhumerus -32.1112 14.4825 -87.5955
rradius 39.7572 0 0
rwrist -17.6164 0 0
rhand -30.2304 -25.1132 0
rfingers 7.12502 0 0
rthumb -3.53995 -55.0632 0
424
root 10.0896 16.8998 23.3753 5.81393 -0.614177 -4.60569
lfemur -40.5401 1.85112 -17.8762
ltibia 29.7307 0 0
lfoot -14.8631 7.0488 0
ltoes -3.24514 0 0
rfemur 7.97748 2.53392 27.6503
rtibia 24.0353 0 0
rfoot -7.94573 2.88007 0
rtoes -14.8799 0 0
lowerback -8.14932 1.87327 1.32041
upperback 0.379242 2.19726 2.96979
thorax 4.94281 1.07464 2.64456
lowerneck -20.3154 -5.45303 -12.4997
upperneck 22.2563 -6.86823 12.1226
head 11.5255 -2.73157 5.50382
lclavicle 3.88227e-14 3.50505e-14 0
lhumerus -40.3539 -11.4061 92.0816
lradius 24.2405 0 0
lwrist 3.3893 0 0
lhand -11.0478 -24.4449 0
lfingers 7.12502 0 0
lthumb 14.9739 4.98548 0
rclavicle 3.88227e-14 3.50505e-14 0
rhumerus -32.3903 14.4276 -87.6531
rradius 39.7714 0 0
rwrist -17.6132 0 0
rhand -30.2689 -25.2922 0
rfingers 7.12502 0 0
rthumb -3.57719 -55.2417 0
425
root 10.1154 16.9157 23.5144 5.74706 -0.528136 -4.36809
lfemur -40.0737 1.92622 -18.2878
ltibia 29.8954 0 0
lfoot -14.9553 6.9322 0
ltoes -2.78922 0 0
rfemur 6.97955 2.34959 27.2733
rtibia 25.5334 0 0
rfoot -8.13169 2.55402 0
rtoes -14.8898 0 0
lowerback -8.10119 1.74863 1.1713
upperback 0.40246 2.04806 2.90872
thorax 4.94535 0.997593 2.64633
lowerneck -20.3933 -5.39339 -12.4423
upperneck 22.316 -6.78334 12.0676
head 11.5468 -2.69284 5.48935
lclavicle 3.7554e-14 3.38292e-14 0
lhumerus -39.4632 -11.5931 91.8505
lradius 24.1309 0 0
lwrist 3.2096 0 0
lhand -11.1421 -24.3985 0
lfingers 7.12502 0 0
lthumb 14.883 5.03861 0
rclavicle 3.7554e-14 3.38292e-14 0
rhumerus -32.6759 14.3654 -87.7048
rradius 39.7769 0 0
rwrist -17.6058 0 0
rhand -30.3059 -25.4668 0
rfingers 7.12502 0 0
rthumb -3.61293 -55.4157 0
426
root 10.1415 16.9321 23.6537 5.68145 -0.440549 -4.12977
lfemur -39.575 1.99967 -18.6962
ltibia 30.0392 0 0
lfoot -15.0433 6.81618 0
ltoes -2.35089 0 0
rfemur 5.96767 2.16871 26.897
rtibia 27.0139 0 0
rfoot -8.32461 2.22368 0
rtoes -14.9065 0 0
lowerback -8.05288 1.62201 1.02148
upperback 0.424859 1.89626 2.8482
thorax 4.94728 0.919263 2.64879
lowerneck -20.4725 -5.33313 -12.3842
upperneck 22.3753 -6.69765 12.0128
head 11.5681 -2.65365 5.47494
lclavicle 3.62947e-14 3.26154e-14 0
lhumerus -38.578 -11.7823 91.6241
lradius 24.0272 0 0
lwrist 3.03335 0 0
lhand -11.234 -24.3534 0
lfingers 7.12502 0 0
lthumb 14.7945 5.09039 0
rclavicle 3.62947e-14 3.26154e-14 0
rhumerus -32.9674 14.2961 -87.7509
rradius 39.774 0 0
rwrist -17.5941 0 0
rhand -30.3414 -25.6368 0
rfingers 7.12502 0 0
rthumb -3.6472 -55.5852 0
427
root 10.1678 16.9489 23.7931 5.61714 -0.351551 -3.891
lfemur -39.0458 2.07146 -19.1012
ltibia 30.1627 0 0
lfoot -15.1269 6.70083 0
ltoes -1.92999 0 0
rfemur 4.94325 1.99133 26.5219
rtibia 28.4757 0 0
rfoot -8.52406 1.8895 0
rtoes -14.9298 0 0
lowerback -8.00445 1.49362 0.871122
upperback 0.446443 1.7421 2.78826
thorax 4.94859 0.839763 2.65193
lowerneck -20.5529 -5.27232 -12.3256
upperneck 22.4342 -6.61127 11.958
head 11.5894 -2.61406 5.4606
lclavicle 3.50457e-14 3.14103e-14 0
lhumerus -37.699 -11.9737 91.4027
lradius 23.9292 0 0
lwrist 2.86061 0 0
lhand -11.3234 -24.3093 0
lfingers 7.12502 0 0
lthumb 14.7084 5.14079 0
rclavicle 3.50457e-14 3.14103e-14 0
rhumerus -33.2642 14.22 -87.7914
rradius 39.763 0 0
rwrist -17.5784 0 0
rhand -30.3754 -25.8024 0
rfingers 7.12502 0 0
rthumb -3.68 -55.7502 0
428
root 10.1942 16.9659 23.9325 5.55414 -0.261277 -3.65201
lfemur -38.4874 2.14157 -19.5025
ltibia 30.2664 0 0
lfoot -15.2063 6.58624 0
ltoes -1.52635 0 0
rfemur 3.90774 1.81751 26.1482
rtibia 29.9182 0 0
rfoot -8.72963 1.55195 0
rtoes -14.9593 0 0
lowerback -7.95594 1.36363 0.72039
upperback 0.46722 1.5858 2.72895
thorax 4.94931 0.759209 2.65571
lowerneck -20.6343 -5.21103 -12.2665
upperneck 22.4926 -6.52432 11.9034
head 11.6106 -2.57413 5.44634
lclavicle 3.38078e-14 3.02146e-14 0
lhumerus -36.8268 -12.1668 91.1861
lradius 23.8369 0 0
lwrist 2.69141 0 0
lhand -11.4102 -24.2665 0
lfingers 7.12502 0 0
lthumb 14.6248 5.18982 0
rclavicle 3.38078e-14 3.02146e-14 0
rhumerus -33.5661 14.1374 -87.8264
rradius 39.7443 0 0
rwrist -17.5587 0 0
rhand -30.4078 -25.9634 0
rfingers 7.12502 0 0
rthumb -3.71135 -55.9108 0
429
root 10.2208 16.9833 24.0721 5.49247 -0.169862 -3.41307
lfemur -37.9015 2.20998 -19.8997
ltibia 30.3509 0 0
lfoot -15.2815 6.4725 0
ltoes -1.13982 0 0
rfemur 2.86256 1.6473 25.7763
rtibia 31.3405 0 0
rfoot -8.94092 1.21148 0
rtoes -14.9949 0 0
lowerback -7.90742 1.23223 0.56945
upperback 0.487194 1.4276 2.67031
thorax 4.94947 0.677719 2.6601
lowerneck -20.7166 -5.14934 -12.207
upperneck 22.5506 -6.43689 11.8491
head 11.6318 -2.53389 5.43218
lclavicle 3.25819e-14 2.90292e-14 0
lhumerus -35.9621 -12.3615 90.9745
lradius 23.7501 0 0
lwrist 2.52583 0 0
lhand -11.4945 -24.2249 0
lfingers 7.12502 0 0
lthumb 14.5436 5.23748 0
rclavicle 3.25819e-14 2.90292e-14 0
rhumerus -33.8725 14.0486 -87.8563
rradius 39.7179 0 0
rwrist -17.5353 0 0
rhand -30.4388 -26.1199 0
rfingers 7.12502 0 0
rthumb -3.74127 -56.0668 0
